<svg xmlns="http://www.w3.org/2000/svg" xmlns:xlink="http://www.w3.org/1999/xlink" width="2000" zoomAndPan="magnify" viewBox="0 0 1500 262.499992" height="350" preserveAspectRatio="xMidYMid meet" version="1.0"><defs><g/><clipPath id="a1f6ce308d"><path d="M 1.425781 4 L 1498.574219 4 L 1498.574219 262 L 1.425781 262 Z M 1.425781 4 " clip-rule="nonzero"/></clipPath><clipPath id="47c3e4c5ae"><rect x="0" width="1498" y="0" height="258"/></clipPath><clipPath id="6428c863a8"><rect x="0" width="231" y="0" height="113"/></clipPath></defs><g clip-path="url(#a1f6ce308d)"><g transform="matrix(1, 0, 0, 1, 1, 4)"><g clip-path="url(#47c3e4c5ae)"><g fill="#000000" fill-opacity="1"><g transform="translate(0.425877, 234.887346)"><g><path d="M 211.609375 0 L 144.03125 0 L 64.703125 -91.328125 L 64.703125 0 L 15.65625 0 L 15.65625 -215.265625 L 64.703125 -215.265625 L 64.703125 -127.328125 L 138.546875 -215.265625 L 198.046875 -215.265625 L 111.40625 -113.234375 Z M 211.609375 0 "/></g></g></g><g fill="#000000" fill-opacity="1"><g transform="translate(205.768341, 234.887346)"><g><path d="M 15.65625 0 L 15.65625 -224.390625 L 61.84375 -224.390625 L 61.84375 -119.765625 L 62.359375 -119.765625 C 74.359375 -131.765625 87.144531 -137.765625 100.71875 -137.765625 C 107.320312 -137.765625 113.882812 -136.894531 120.40625 -135.15625 C 126.9375 -133.414062 133.203125 -130.71875 139.203125 -127.0625 C 145.203125 -123.414062 150.070312 -118.242188 153.8125 -111.546875 C 157.550781 -104.847656 159.421875 -97.0625 159.421875 -88.1875 L 159.421875 0 L 113.234375 0 L 113.234375 -75.671875 C 113.234375 -82.628906 111.015625 -88.71875 106.578125 -93.9375 C 102.148438 -99.15625 96.367188 -101.765625 89.234375 -101.765625 C 82.273438 -101.765625 75.96875 -99.066406 70.3125 -93.671875 C 64.664062 -88.273438 61.84375 -82.273438 61.84375 -75.671875 L 61.84375 0 Z M 15.65625 0 "/></g></g></g><g fill="#000000" fill-opacity="1"><g transform="translate(378.235133, 234.887346)"><g><path d="M 24.78125 -16.5625 C 12.257812 -30.21875 6 -46.960938 6 -66.796875 C 6 -86.628906 12.257812 -103.414062 24.78125 -117.15625 C 37.3125 -130.894531 53.226562 -137.765625 72.53125 -137.765625 C 90.28125 -137.765625 104.894531 -132.195312 116.375 -121.0625 L 116.375 -133.859375 L 162.546875 -133.859375 L 162.546875 0 L 116.890625 0 L 116.890625 -15.140625 L 116.375 -15.140625 C 104.894531 -2.441406 90.28125 3.90625 72.53125 3.90625 C 53.226562 3.90625 37.3125 -2.914062 24.78125 -16.5625 Z M 64.046875 -89.5 C 58.046875 -83.582031 55.046875 -76.015625 55.046875 -66.796875 C 55.046875 -57.578125 57.914062 -50.050781 63.65625 -44.21875 C 69.40625 -38.394531 76.972656 -35.484375 86.359375 -35.484375 C 95.410156 -35.484375 102.847656 -38.441406 108.671875 -44.359375 C 114.503906 -50.273438 117.421875 -57.753906 117.421875 -66.796875 C 117.421875 -76.015625 114.414062 -83.582031 108.40625 -89.5 C 102.40625 -95.414062 95.054688 -98.375 86.359375 -98.375 C 77.492188 -98.375 70.054688 -95.414062 64.046875 -89.5 Z M 64.046875 -89.5 "/></g></g></g><g fill="#000000" fill-opacity="1"><g transform="translate(556.442115, 234.887346)"><g><path d="M 15.65625 0 L 15.65625 -133.859375 L 61.84375 -133.859375 L 61.84375 -114.546875 L 62.359375 -114.546875 C 62.703125 -115.242188 63.265625 -116.113281 64.046875 -117.15625 C 64.835938 -118.195312 66.535156 -120.019531 69.140625 -122.625 C 71.753906 -125.238281 74.535156 -127.585938 77.484375 -129.671875 C 80.441406 -131.765625 84.269531 -133.632812 88.96875 -135.28125 C 93.664062 -136.9375 98.453125 -137.765625 103.328125 -137.765625 C 108.367188 -137.765625 113.320312 -137.066406 118.1875 -135.671875 C 123.0625 -134.285156 126.628906 -132.894531 128.890625 -131.5 L 132.546875 -129.421875 L 113.234375 -90.28125 C 107.492188 -95.144531 99.492188 -97.578125 89.234375 -97.578125 C 83.671875 -97.578125 78.890625 -96.359375 74.890625 -93.921875 C 70.890625 -91.492188 68.0625 -88.539062 66.40625 -85.0625 C 64.75 -81.582031 63.570312 -78.625 62.875 -76.1875 C 62.1875 -73.75 61.84375 -71.835938 61.84375 -70.453125 L 61.84375 0 Z M 15.65625 0 "/></g></g></g><g fill="#000000" fill-opacity="1"><g transform="translate(684.813793, 234.887346)"><g><path d="M 151.078125 -60.53125 L 54.015625 -60.53125 C 54.015625 -51.132812 57.054688 -44.175781 63.140625 -39.65625 C 69.234375 -35.132812 75.84375 -32.875 82.96875 -32.875 C 90.445312 -32.875 96.359375 -33.875 100.703125 -35.875 C 105.054688 -37.875 110.019531 -41.832031 115.59375 -47.75 L 148.984375 -31.046875 C 135.066406 -7.742188 111.929688 3.90625 79.578125 3.90625 C 59.398438 3.90625 42.09375 -3.003906 27.65625 -16.828125 C 13.21875 -30.660156 6 -47.316406 6 -66.796875 C 6 -86.273438 13.21875 -102.972656 27.65625 -116.890625 C 42.09375 -130.804688 59.398438 -137.765625 79.578125 -137.765625 C 100.796875 -137.765625 118.054688 -131.632812 131.359375 -119.375 C 144.671875 -107.113281 151.328125 -89.585938 151.328125 -66.796875 C 151.328125 -63.660156 151.242188 -61.570312 151.078125 -60.53125 Z M 55.3125 -86.109375 L 106.1875 -86.109375 C 105.144531 -93.066406 102.40625 -98.414062 97.96875 -102.15625 C 93.539062 -105.894531 87.847656 -107.765625 80.890625 -107.765625 C 73.234375 -107.765625 67.144531 -105.765625 62.625 -101.765625 C 58.101562 -97.765625 55.664062 -92.546875 55.3125 -86.109375 Z M 55.3125 -86.109375 "/></g></g></g><g fill="#000000" fill-opacity="1"><g transform="translate(842.147317, 234.887346)"><g><path d="M 151.078125 -60.53125 L 54.015625 -60.53125 C 54.015625 -51.132812 57.054688 -44.175781 63.140625 -39.65625 C 69.234375 -35.132812 75.84375 -32.875 82.96875 -32.875 C 90.445312 -32.875 96.359375 -33.875 100.703125 -35.875 C 105.054688 -37.875 110.019531 -41.832031 115.59375 -47.75 L 148.984375 -31.046875 C 135.066406 -7.742188 111.929688 3.90625 79.578125 3.90625 C 59.398438 3.90625 42.09375 -3.003906 27.65625 -16.828125 C 13.21875 -30.660156 6 -47.316406 6 -66.796875 C 6 -86.273438 13.21875 -102.972656 27.65625 -116.890625 C 42.09375 -130.804688 59.398438 -137.765625 79.578125 -137.765625 C 100.796875 -137.765625 118.054688 -131.632812 131.359375 -119.375 C 144.671875 -107.113281 151.328125 -89.585938 151.328125 -66.796875 C 151.328125 -63.660156 151.242188 -61.570312 151.078125 -60.53125 Z M 55.3125 -86.109375 L 106.1875 -86.109375 C 105.144531 -93.066406 102.40625 -98.414062 97.96875 -102.15625 C 93.539062 -105.894531 87.847656 -107.765625 80.890625 -107.765625 C 73.234375 -107.765625 67.144531 -105.765625 62.625 -101.765625 C 58.101562 -97.765625 55.664062 -92.546875 55.3125 -86.109375 Z M 55.3125 -86.109375 "/></g></g></g><g fill="#000000" fill-opacity="1"><g transform="translate(999.480911, 234.887346)"><g><path d="M 24.78125 -16.5625 C 12.257812 -30.21875 6 -46.960938 6 -66.796875 C 6 -86.628906 12.257812 -103.414062 24.78125 -117.15625 C 37.3125 -130.894531 53.226562 -137.765625 72.53125 -137.765625 C 90.28125 -137.765625 104.894531 -132.195312 116.375 -121.0625 L 116.375 -224.390625 L 162.546875 -224.390625 L 162.546875 0 L 116.890625 0 L 116.890625 -15.140625 L 116.375 -15.140625 C 104.894531 -2.441406 90.28125 3.90625 72.53125 3.90625 C 53.226562 3.90625 37.3125 -2.914062 24.78125 -16.5625 Z M 64.046875 -89.5 C 58.046875 -83.582031 55.046875 -76.015625 55.046875 -66.796875 C 55.046875 -57.578125 57.914062 -50.050781 63.65625 -44.21875 C 69.40625 -38.394531 76.972656 -35.484375 86.359375 -35.484375 C 95.410156 -35.484375 102.847656 -38.441406 108.671875 -44.359375 C 114.503906 -50.273438 117.421875 -57.753906 117.421875 -66.796875 C 117.421875 -76.015625 114.414062 -83.582031 108.40625 -89.5 C 102.40625 -95.414062 95.054688 -98.375 86.359375 -98.375 C 77.492188 -98.375 70.054688 -95.414062 64.046875 -89.5 Z M 64.046875 -89.5 "/></g></g><g transform="translate(1177.687924, 234.887346)"><g><path d="M 64.703125 -215.265625 L 64.703125 -43.046875 L 138.8125 -43.046875 L 138.8125 0 L 15.65625 0 L 15.65625 -215.265625 Z M 64.703125 -215.265625 "/></g></g><g transform="translate(1325.106609, 234.887346)"><g><path d="M 28.3125 -15.921875 C 13.4375 -29.140625 6 -46.097656 6 -66.796875 C 6 -87.492188 13.738281 -104.492188 29.21875 -117.796875 C 44.707031 -131.109375 63.84375 -137.765625 86.625 -137.765625 C 109.0625 -137.765625 127.976562 -131.066406 143.375 -117.671875 C 158.769531 -104.273438 166.46875 -87.3125 166.46875 -66.78125 C 166.46875 -46.257812 158.941406 -29.347656 143.890625 -16.046875 C 128.847656 -2.742188 109.757812 3.90625 86.625 3.90625 C 62.625 3.90625 43.1875 -2.703125 28.3125 -15.921875 Z M 64.046875 -89.5 C 58.046875 -83.582031 55.046875 -76.015625 55.046875 -66.796875 C 55.046875 -57.578125 57.914062 -50.050781 63.65625 -44.21875 C 69.40625 -38.394531 76.972656 -35.484375 86.359375 -35.484375 C 95.410156 -35.484375 102.847656 -38.441406 108.671875 -44.359375 C 114.503906 -50.273438 117.421875 -57.753906 117.421875 -66.796875 C 117.421875 -76.015625 114.414062 -83.582031 108.40625 -89.5 C 102.40625 -95.414062 95.054688 -98.375 86.359375 -98.375 C 77.492188 -98.375 70.054688 -95.414062 64.046875 -89.5 Z M 64.046875 -89.5 "/></g></g></g></g></g></g><g transform="matrix(1, 0, 0, 1, 1260, 0)"><g clip-path="url(#6428c863a8)"><g fill="#000000" fill-opacity="1"><g transform="translate(1.073607, 80.210523)"><g><path d="M 16.0625 -19.765625 C 19.019531 -19.765625 21.53125 -18.734375 23.59375 -16.671875 C 25.65625 -14.609375 26.6875 -12.097656 26.6875 -9.140625 C 26.6875 -6.242188 25.65625 -3.765625 23.59375 -1.703125 C 21.53125 0.359375 19.019531 1.390625 16.0625 1.390625 C 13.164062 1.390625 10.6875 0.359375 8.625 -1.703125 C 6.570312 -3.765625 5.546875 -6.242188 5.546875 -9.140625 C 5.546875 -12.097656 6.570312 -14.609375 8.625 -16.671875 C 10.6875 -18.734375 13.164062 -19.765625 16.0625 -19.765625 Z M 16.0625 -19.765625 "/></g></g></g><g fill="#000000" fill-opacity="1"><g transform="translate(33.296308, 80.210523)"><g><path d="M 30.75 -35.359375 C 27.664062 -35.359375 25.015625 -34.21875 22.796875 -31.9375 C 20.585938 -29.664062 19.484375 -26.929688 19.484375 -23.734375 C 19.484375 -20.460938 20.585938 -17.6875 22.796875 -15.40625 C 25.015625 -13.132812 27.664062 -12 30.75 -12 C 32.226562 -12 33.628906 -12.179688 34.953125 -12.546875 C 36.273438 -12.921875 37.242188 -13.296875 37.859375 -13.671875 L 38.6875 -14.21875 L 44.21875 -2.859375 C 43.789062 -2.554688 43.191406 -2.171875 42.421875 -1.703125 C 41.648438 -1.242188 39.894531 -0.613281 37.15625 0.1875 C 34.414062 0.988281 31.476562 1.390625 28.34375 1.390625 C 21.382812 1.390625 15.273438 -1.054688 10.015625 -5.953125 C 4.753906 -10.847656 2.125 -16.710938 2.125 -23.546875 C 2.125 -30.441406 4.753906 -36.363281 10.015625 -41.3125 C 15.273438 -46.269531 21.382812 -48.75 28.34375 -48.75 C 31.476562 -48.75 34.367188 -48.378906 37.015625 -47.640625 C 39.671875 -46.898438 41.550781 -46.160156 42.65625 -45.421875 L 44.21875 -44.3125 L 38.6875 -33.140625 C 36.65625 -34.617188 34.007812 -35.359375 30.75 -35.359375 Z M 30.75 -35.359375 "/></g></g></g><g fill="#000000" fill-opacity="1"><g transform="translate(78.629678, 80.210523)"><g><path d="M 10.015625 -5.625 C 4.753906 -10.3125 2.125 -16.316406 2.125 -23.640625 C 2.125 -30.960938 4.863281 -36.976562 10.34375 -41.6875 C 15.820312 -46.394531 22.59375 -48.75 30.65625 -48.75 C 38.59375 -48.75 45.285156 -46.378906 50.734375 -41.640625 C 56.179688 -36.898438 58.90625 -30.894531 58.90625 -23.625 C 58.90625 -16.363281 56.242188 -10.378906 50.921875 -5.671875 C 45.597656 -0.960938 38.84375 1.390625 30.65625 1.390625 C 22.15625 1.390625 15.273438 -0.945312 10.015625 -5.625 Z M 22.671875 -31.671875 C 20.546875 -29.578125 19.484375 -26.898438 19.484375 -23.640625 C 19.484375 -20.378906 20.5 -17.71875 22.53125 -15.65625 C 24.5625 -13.59375 27.238281 -12.5625 30.5625 -12.5625 C 33.757812 -12.5625 36.390625 -13.601562 38.453125 -15.6875 C 40.515625 -17.78125 41.546875 -20.429688 41.546875 -23.640625 C 41.546875 -26.898438 40.484375 -29.578125 38.359375 -31.671875 C 36.234375 -33.765625 33.632812 -34.8125 30.5625 -34.8125 C 27.425781 -34.8125 24.796875 -33.765625 22.671875 -31.671875 Z M 22.671875 -31.671875 "/></g></g></g><g fill="#000000" fill-opacity="1"><g transform="translate(139.474257, 80.210523)"><g><path d="M 5.546875 0 L 5.546875 -47.359375 L 21.875 -47.359375 L 21.875 -42.375 L 22.0625 -42.375 C 26.3125 -46.625 30.835938 -48.75 35.640625 -48.75 C 39.085938 -48.75 42.316406 -48.039062 45.328125 -46.625 C 48.347656 -45.207031 50.628906 -43.023438 52.171875 -40.078125 C 56.960938 -45.859375 62.191406 -48.75 67.859375 -48.75 C 72.910156 -48.75 77.25 -47.332031 80.875 -44.5 C 84.507812 -41.664062 86.328125 -37.234375 86.328125 -31.203125 L 86.328125 0 L 69.984375 0 L 69.984375 -26.78125 C 69.984375 -29.300781 69.289062 -31.40625 67.90625 -33.09375 C 66.519531 -34.789062 64.441406 -35.640625 61.671875 -35.640625 C 59.273438 -35.640625 57.441406 -34.914062 56.171875 -33.46875 C 54.910156 -32.019531 54.222656 -30.28125 54.109375 -28.25 L 54.109375 0 L 37.765625 0 L 37.765625 -26.78125 C 37.765625 -29.300781 37.070312 -31.40625 35.6875 -33.09375 C 34.300781 -34.789062 32.222656 -35.640625 29.453125 -35.640625 C 26.929688 -35.640625 25.035156 -34.851562 23.765625 -33.28125 C 22.503906 -31.71875 21.875 -29.859375 21.875 -27.703125 L 21.875 0 Z M 5.546875 0 "/></g></g></g></g></g></svg>